<svg xmlns="http://www.w3.org/2000/svg" width="512" height="768" viewBox="0 0 512 768">
  <defs>
    <linearGradient id="skin" x1="0" y1="0" x2="1" y2="1"><stop offset="0"/><stop offset="1" stop-opacity=".2"/></linearGradient>
    <linearGradient id="shirt" x1="0" y1="0" x2="0" y2="1"><stop stop-color="#666"/><stop offset="1" stop-color="#292929"/></linearGradient>
  </defs>
  <rect width="512" height="768" fill="none"/>
  <ellipse cx="256" cy="716" rx="145" ry="25" fill="#000" opacity=".35"/>
  <circle cx="256" cy="185" r="92" fill="#c98f67"/>
  <path d="M164 178c8-85 177-106 184 9-30-28-57-38-95-32-32 5-55 18-89 23z" fill="#333"/>
  <circle cx="222" cy="190" r="8" fill="#222"/><circle cx="290" cy="190" r="8" fill="#222"/>
  <path d="M222 232c24 14 45 14 69 0" fill="none" stroke="#633" stroke-width="7" stroke-linecap="round"/>
  <path d="M175 280 Q256 250 337 280 L375 510 Q256 555 137 510Z" fill="url(#shirt)"/>
  <path d="M177 294L103 452" stroke="#c98f67" stroke-width="42" stroke-linecap="round"/>
  <path d="M335 294L409 452" stroke="#c98f67" stroke-width="42" stroke-linecap="round"/>
  <circle cx="103" cy="452" r="23" fill="#c98f67"/><circle cx="409" cy="452" r="23" fill="#c98f67"/>
  <path d="M190 505L175 665" stroke="#1d2630" stroke-width="55" stroke-linecap="round"/>
  <path d="M322 505L337 665" stroke="#1d2630" stroke-width="55" stroke-linecap="round"/>
  <path d="M151 674h52l-6 32h-80c0-18 15-32 34-32z" fill="#111"/>
  <path d="M309 674h52l34 32h-80c-5-15-3-23-6-32z" fill="#111"/>
</svg>
